<?xml version="1.0" standalone="no"?>
<!DOCTYPE svg PUBLIC "-//W3C//DTD SVG 20010904//EN"
 "http://www.w3.org/TR/2001/REC-SVG-20010904/DTD/svg10.dtd">
<svg version="1.0" xmlns="http://www.w3.org/2000/svg"
 width="4500.000000pt" height="4500.000000pt" viewBox="0 0 4500.000000 4500.000000"
 preserveAspectRatio="xMidYMid meet">
<metadata>
Created by potrace 1.16, written by Peter Selinger 2001-2019
</metadata>
<g transform="translate(0.000000,4500.000000) scale(0.100000,-0.100000)"
fill="#000" stroke="none">
<path d="M22080 37224 c-19 -2 -87 -9 -150 -15 -63 -6 -178 -22 -255 -35
-1562 -273 -2803 -1475 -3124 -3028 -58 -277 -74 -441 -76 -775 l-2 -305 -129
-81 c-895 -562 -1636 -1285 -2210 -2155 -616 -934 -1000 -1966 -1143 -3070
-47 -356 -55 -499 -55 -935 -1 -231 3 -441 7 -467 l8 -48 620 0 620 0 -8 158
c-68 1350 267 2593 995 3691 325 491 759 966 1222 1341 l115 93 3 -976 2 -976
38 -6 c84 -14 315 -76 408 -110 236 -86 489 -230 691 -393 56 -45 104 -82 107
-82 3 0 6 740 6 1645 l0 1644 48 21 c533 238 1175 401 1832 467 247 25 834 25
1080 0 725 -74 1346 -241 1988 -534 l142 -65 0 -2765 c0 -1870 3 -2795 11
-2861 50 -462 248 -916 552 -1267 295 -341 719 -604 1150 -714 200 -52 288
-63 523 -68 171 -4 250 -2 353 11 399 51 771 203 1101 450 110 82 295 258 385
367 278 333 467 780 514 1221 22 195 11 610 -25 968 -14 143 -60 480 -66 486
-2 1 -61 29 -133 62 -181 82 -353 151 -541 215 -258 89 -684 201 -700 184 -4
-3 7 -57 24 -119 110 -403 176 -817 203 -1268 15 -264 8 -415 -26 -544 -99
-377 -399 -672 -784 -769 -121 -30 -370 -30 -481 0 -368 101 -643 352 -762
692 -56 162 -52 -21 -55 2539 -2 1466 0 2352 6 2350 22 -8 262 -232 399 -372
222 -229 413 -457 602 -723 l80 -111 63 -6 c34 -3 118 -11 187 -16 374 -33
791 -106 1183 -209 142 -37 147 -38 141 -17 -10 36 -176 353 -267 511 -537
934 -1286 1741 -2195 2365 -86 59 -121 88 -118 99 3 9 10 90 17 181 21 289 1
658 -51 946 -219 1210 -1003 2249 -2105 2789 -396 194 -799 314 -1250 371
-113 14 -633 27 -715 18z m440 -1244 c351 -26 661 -111 975 -265 689 -339
1204 -973 1390 -1711 32 -125 83 -439 73 -449 -2 -2 -56 16 -119 41 -682 270
-1430 435 -2194 484 -342 22 -854 11 -1210 -26 -541 -56 -1102 -180 -1608
-357 l-98 -34 7 46 c65 463 263 924 552 1286 97 121 285 310 407 408 515 415
1179 625 1825 577z"/>
<path d="M26550 30000 c-80 -4 -160 -8 -177 -9 l-33 -1 0 -625 0 -625 43 7
c23 5 233 8 467 8 336 0 457 -4 580 -18 366 -41 640 -90 955 -172 1235 -320
2356 -1049 3161 -2057 l74 -93 -978 -3 -977 -2 -23 -113 c-72 -353 -265 -753
-501 -1037 l-71 -85 1647 -5 1647 -5 48 -112 c223 -528 367 -1102 433 -1718
22 -202 31 -762 16 -976 -39 -555 -141 -1058 -319 -1579 -74 -215 -191 -500
-268 -651 l-24 -49 -2803 -3 c-2657 -2 -2808 -4 -2912 -21 -601 -99 -1101
-389 -1470 -851 -212 -266 -381 -629 -449 -965 -83 -412 -50 -866 90 -1250 84
-229 240 -498 396 -686 371 -445 861 -718 1453 -810 195 -31 678 -21 1075 21
222 24 434 56 447 69 26 25 182 391 264 621 73 202 219 738 206 751 -2 3 -62
-11 -133 -30 -478 -130 -1025 -206 -1481 -206 -188 0 -262 9 -377 46 -403 129
-687 479 -737 907 -41 349 125 724 420 948 83 63 261 151 366 181 l80 23 2368
3 c2055 2 2367 0 2360 -12 -19 -35 -285 -315 -406 -429 -235 -222 -527 -460
-743 -606 l-50 -33 -17 -207 c-32 -385 -99 -781 -198 -1170 -27 -107 -46 -197
-43 -200 6 -6 188 83 359 176 479 261 939 583 1339 937 142 125 447 428 580
576 222 247 422 501 601 763 l87 128 92 -8 c173 -15 698 -9 841 10 880 119
1645 491 2254 1095 620 617 1000 1388 1118 2272 25 191 25 765 0 955 -110 819
-443 1533 -998 2144 -301 332 -704 633 -1134 849 -373 187 -814 317 -1255 372
-144 17 -468 29 -610 22 l-135 -7 -57 91 c-828 1339 -2032 2352 -3498 2944
-346 140 -853 292 -1230 369 -297 60 -648 108 -970 130 -205 15 -619 20 -790
11z m7296 -4820 c413 -74 812 -253 1154 -518 117 -91 325 -296 423 -417 305
-377 497 -827 569 -1330 20 -138 17 -533 -5 -675 -93 -603 -354 -1113 -778
-1526 -209 -202 -409 -343 -674 -475 -171 -84 -416 -171 -585 -207 -115 -25
-295 -52 -342 -52 l-35 0 49 123 c64 161 166 463 222 658 307 1077 355 2249
140 3374 -54 282 -178 742 -263 975 -17 46 -31 85 -31 87 0 7 54 2 156 -17z"/>
<path d="M24470 29671 c-1090 -365 -2050 -964 -2865 -1785 -326 -329 -598
-713 -840 -1188 -128 -250 -202 -429 -295 -707 -148 -446 -229 -834 -272
-1311 -21 -233 -16 -680 11 -975 51 -546 3 -1008 -151 -1485 -46 -143 -98
-277 -156 -402 -22 -48 -38 -90 -34 -92 11 -6 298 -54 412 -68 119 -15 698
-18 822 -5 l77 9 31 86 c121 333 219 805 251 1206 13 170 6 720 -11 854 -31
243 -29 685 5 945 83 648 309 1261 658 1787 138 207 246 337 443 530 592 580
1270 1022 2022 1316 l122 48 0 653 c0 516 -3 653 -12 653 -7 0 -105 -31 -218
-69z"/>
<path d="M17750 29510 c-209 -13 -450 -38 -645 -66 -93 -13 -172 -24 -176 -24
-18 0 -198 -425 -282 -665 -74 -214 -208 -708 -195 -721 2 -1 51 11 108 27
253 70 614 141 890 174 346 40 759 51 885 22 217 -49 391 -145 544 -298 135
-136 227 -302 277 -495 144 -571 -236 -1164 -823 -1283 -100 -21 -118 -21
-2433 -21 l-2332 0 73 83 c114 128 442 453 565 559 145 123 294 240 452 354
l127 91 12 144 c38 455 96 803 204 1229 27 108 49 199 49 202 0 20 -378 -177
-632 -328 -886 -529 -1679 -1277 -2263 -2138 l-80 -118 -36 6 c-96 15 -400 27
-544 21 -591 -24 -1104 -154 -1615 -410 -382 -191 -697 -420 -1010 -734 -497
-498 -848 -1122 -1014 -1801 -84 -346 -110 -592 -103 -995 5 -303 15 -409 58
-640 285 -1540 1496 -2770 3033 -3080 290 -58 413 -69 758 -70 l306 0 48 -80
c386 -638 940 -1279 1534 -1776 1038 -866 2289 -1425 3625 -1618 398 -58 958
-85 1378 -66 l167 7 0 624 0 625 -92 -8 c-172 -15 -788 -8 -968 10 -503 52
-922 141 -1375 292 -1057 352 -2013 1014 -2726 1885 l-118 145 979 3 c897 2
980 3 980 18 0 9 12 69 26 133 81 360 244 695 481 988 l83 103 -1647 2 -1647
3 -64 155 c-212 515 -355 1087 -418 1675 -24 232 -30 801 -10 1048 61 747 248
1456 558 2110 l51 107 2781 0 c1872 0 2809 3 2866 10 518 64 998 297 1357 657
366 369 598 848 658 1359 51 441 -26 890 -220 1282 -342 690 -964 1147 -1725
1267 -126 20 -506 28 -720 15z m-6341 -4542 c-179 -449 -307 -881 -394 -1333
-238 -1231 -153 -2513 244 -3689 28 -82 49 -152 46 -154 -8 -8 -207 29 -340
63 -853 218 -1550 865 -1837 1705 -169 496 -181 1061 -34 1566 302 1032 1200
1777 2276 1887 19 2 41 5 47 5 9 2 6 -14 -8 -50z"/>
<path d="M21746 25053 c-11 -38 -45 -244 -62 -383 -14 -113 -18 -213 -18 -450
1 -168 5 -340 10 -384 l9 -78 80 -30 c290 -108 721 -203 1105 -245 187 -20
693 -23 875 -5 380 38 723 40 1000 7 754 -90 1428 -361 2040 -821 128 -96 431
-398 600 -599 442 -524 754 -1042 1010 -1675 l63 -155 656 -3 c361 -1 656 0
656 3 0 18 -151 453 -204 586 -313 793 -765 1529 -1325 2159 -278 312 -473
501 -683 663 -839 645 -1817 1014 -2910 1098 -203 15 -729 6 -933 -16 -181
-20 -540 -23 -710 -6 -379 38 -781 143 -1098 288 -153 69 -154 69 -161 46z"/>
<path d="M15234 24748 c376 -1217 986 -2226 1878 -3103 344 -339 735 -610
1233 -855 589 -290 1198 -459 1910 -532 207 -21 768 -17 990 7 236 26 608 26
815 2 371 -45 735 -145 1064 -293 66 -30 122 -52 124 -49 17 16 67 368 83 575
11 148 7 493 -7 666 l-6 71 -122 41 c-390 132 -785 211 -1216 243 -197 14
-615 7 -833 -16 -965 -97 -1916 137 -2712 668 -217 144 -308 219 -496 407
-581 581 -1026 1254 -1334 2020 l-62 155 -656 3 c-524 2 -656 0 -653 -10z"/>
<path d="M23926 23349 c-59 -5 -103 -14 -108 -22 -19 -30 -111 -330 -152 -497
-50 -200 -85 -392 -113 -620 -22 -183 -26 -816 -5 -1001 88 -784 -50 -1580
-396 -2284 -125 -254 -236 -435 -412 -670 -167 -223 -573 -605 -913 -858 -419
-313 -899 -582 -1379 -773 l-148 -58 0 -653 c0 -460 3 -653 11 -653 6 0 81 23
167 51 1102 359 2091 971 2917 1803 326 329 598 713 840 1188 128 250 202 429
295 707 148 446 229 834 272 1311 21 233 16 680 -11 975 -51 546 -3 1008 151
1485 46 143 98 277 157 403 27 60 36 89 28 92 -21 8 -242 45 -359 61 -136 19
-693 27 -842 13z"/>
<path d="M17535 20435 c-397 -56 -761 -207 -1085 -449 -110 -82 -295 -258
-385 -367 -278 -333 -467 -780 -514 -1221 -22 -198 -11 -603 25 -968 14 -142
60 -480 66 -486 2 -1 62 -29 133 -62 181 -82 353 -151 541 -215 258 -89 684
-201 700 -184 4 3 -7 57 -24 119 -110 403 -176 817 -203 1268 -15 264 -8 415
26 544 99 377 399 672 784 769 121 30 370 30 481 0 368 -101 643 -352 762
-692 56 -162 52 21 55 -2539 2 -1466 0 -2352 -6 -2350 -22 8 -262 232 -399
372 -222 229 -413 457 -602 723 l-80 111 -63 6 c-592 52 -952 112 -1410 235
-107 29 -108 29 -101 7 10 -36 176 -353 267 -511 537 -934 1286 -1741 2195
-2365 86 -59 121 -88 118 -99 -15 -51 -28 -370 -23 -551 17 -574 144 -1090
393 -1595 547 -1114 1595 -1900 2814 -2109 249 -43 350 -51 660 -51 310 0 411
8 660 51 1563 269 2807 1473 3129 3028 58 277 74 441 76 775 l2 305 129 81
c895 562 1636 1285 2210 2155 616 934 1000 1966 1143 3070 47 356 55 499 55
935 1 231 -3 441 -7 468 l-8 47 -620 0 -620 0 8 -157 c12 -243 7 -667 -11
-873 -110 -1254 -579 -2389 -1389 -3360 -209 -249 -574 -606 -847 -824 l-85
-68 -3 975 -2 976 -38 6 c-84 14 -315 76 -408 110 -236 86 -489 230 -691 393
-56 45 -104 82 -107 82 -3 0 -6 -740 -6 -1645 l0 -1644 -47 -21 c-534 -238
-1176 -401 -1833 -467 -247 -25 -834 -25 -1080 0 -725 74 -1346 241 -1987 534
l-143 65 0 2765 c0 1870 -3 2795 -11 2861 -50 462 -248 916 -552 1267 -295
341 -719 604 -1150 714 -211 54 -285 63 -547 67 -173 2 -274 -1 -345 -11z
m2650 -9040 c586 -229 1228 -384 1860 -449 478 -49 1042 -49 1520 0 541 56
1102 180 1608 357 53 19 97 31 97 28 0 -21 -41 -240 -59 -312 -175 -738 -705
-1395 -1396 -1734 -243 -119 -459 -189 -720 -235 -826 -143 -1687 134 -2289
736 -416 416 -674 940 -751 1528 -18 134 -18 139 -2 133 6 -3 66 -26 132 -52z"/>
</g>
</svg>
